<?xml version="1.0" encoding="utf-8"?>
<!-- Generator: Adobe Illustrator 16.0.0, SVG Export Plug-In . SVG Version: 6.00 Build 0)  -->
<!DOCTYPE svg PUBLIC "-//W3C//DTD SVG 1.1//EN" "http://www.w3.org/Graphics/SVG/1.1/DTD/svg11.dtd">
<svg version="1.1" id="Слой_1" xmlns="http://www.w3.org/2000/svg" xmlns:xlink="http://www.w3.org/1999/xlink" x="0px" y="0px"
	 width="106px" height="106px" viewBox="0 0 106 106" enable-background="new 0 0 106 106" xml:space="preserve">
<g id="Слой_x0020_1">
	<path d="M23.338,50.7c-0.43-0.705-0.207-1.626,0.498-2.057c0.706-0.43,1.626-0.207,2.057,0.498l17.128,28.103l32.532-53.731
		c0.428-0.705,1.346-0.931,2.051-0.504s0.932,1.345,0.504,2.051L44.351,80.814c-0.122,0.233-0.306,0.438-0.548,0.586
		c-0.705,0.43-1.626,0.207-2.057-0.498L23.338,50.7z M10.208,82.314C2.141,70.539-0.411,56.611,1.989,43.596
		c2.4-13.018,9.752-25.122,21.488-33.245c0.066-0.055,0.136-0.103,0.208-0.144C35.461,2.141,49.39-0.411,62.404,1.989
		c13.018,2.4,25.122,9.752,33.244,21.488c0.055,0.066,0.103,0.136,0.144,0.208c8.066,11.775,10.618,25.704,8.219,38.718
		c-2.4,13.018-9.752,25.122-21.489,33.245c-0.065,0.054-0.136,0.103-0.208,0.144c-11.774,8.066-25.703,10.617-38.717,8.219
		c-13.018-2.4-25.123-9.753-33.245-21.489C10.296,82.456,10.249,82.387,10.208,82.314z M4.93,44.136
		C2.662,56.438,5.086,69.604,12.739,80.72l0.002,0.003c7.656,11.117,19.093,18.079,31.394,20.348
		c12.302,2.268,25.468-0.156,36.583-7.81l0.003-0.002c11.118-7.656,18.08-19.093,20.349-31.394
		c2.268-12.302-0.156-25.469-7.811-36.584l-0.002-0.003C85.603,14.16,74.166,7.198,61.865,4.93
		c-12.303-2.268-25.469,0.156-36.584,7.809l-0.003,0.002C14.16,20.398,7.198,31.835,4.93,44.136z"/>
</g>
</svg>
