<?xml version="1.0" encoding="utf-8"?>
<!DOCTYPE svg PUBLIC "-//W3C//DTD SVG 1.1//EN" "http://www.w3.org/Graphics/SVG/1.1/DTD/svg11.dtd">
<svg version="1.1" id="Слой_1" xmlns="http://www.w3.org/2000/svg" xmlns:xlink="http://www.w3.org/1999/xlink" x="0px" y="0px"
	 width="428px" height="147px" viewBox="0 0 428 147" enable-background="new 0 0 428 147" xml:space="preserve">
<g id="Слой_x0020_1">
	<path d="M212.945,66.464l-0.086,0.183 M374.419,67.07l0.001,0.001 M382.748,81.119c-0.063-0.008-0.137-0.054-0.223-0.134
		c-0.02-0.005-0.037-0.015-0.052-0.028l-0.036-0.027l-0.104-0.07c-0.016-0.012-0.027-0.025-0.035-0.041
		c-0.006-0.01-0.014-0.023-0.022-0.036l-0.001-0.001l-0.032-0.045l-0.035-0.043l-0.002-0.002l-0.021-0.023l0,0
		c-0.015-0.014-0.029-0.033-0.043-0.059c-0.011-0.02-0.023-0.045-0.036-0.076l0,0l0,0c-0.008-0.02-0.019-0.037-0.028-0.053
		l-0.003-0.006c-0.007-0.011-0.015-0.02-0.022-0.027c-0.011-0.01-0.019-0.022-0.023-0.035h-0.001l-5.432-12.95
		c-0.072-0.16-0.109-0.325-0.111-0.492s0.031-0.337,0.099-0.509 M382.243,80.736L382.243,80.736 M376.584,66.461L376.584,66.461
		c0.069-0.173,0.165-0.32,0.289-0.439v0l0.002-0.001c0.121-0.117,0.27-0.208,0.442-0.272c0.161-0.072,0.326-0.11,0.492-0.111
		c0.165-0.002,0.333,0.031,0.501,0.099s0.313,0.162,0.434,0.281s0.218,0.264,0.29,0.431l0.002,0.006l4.223,10.025l4.225-10.03v0l0,0
		c0.072-0.167,0.17-0.312,0.294-0.431v0l0,0c0.123-0.119,0.271-0.212,0.442-0.28s0.342-0.101,0.508-0.099
		c0.167,0.001,0.331,0.039,0.49,0.109c0.169,0.065,0.314,0.158,0.434,0.277c0.119,0.119,0.214,0.265,0.282,0.438v0
		c0.067,0.171,0.103,0.341,0.104,0.507l0,0v0.005c0.001,0.165-0.03,0.328-0.094,0.487l-0.003,0.005l-5.475,12.946l-0.005,0.01
		l-0.078,0.156c-0.007,0.032-0.023,0.063-0.051,0.09l-0.006,0.006l-0.283,0.282l-0.002,0.002c-0.021,0.021-0.046,0.04-0.076,0.059
		c-0.026,0.017-0.06,0.033-0.098,0.05l0.001,0.001c-0.033,0.015-0.078,0.032-0.132,0.053h-0.001l0,0
		c-0.045,0.017-0.104,0.038-0.178,0.062c-0.011,0.004-0.022,0.006-0.033,0.006l0,0h-0.033c-0.065,0.016-0.147,0.022-0.244,0.022
		s-0.173-0.007-0.227-0.022h-0.028c-0.021,0-0.04-0.005-0.057-0.016c-0.04-0.019-0.081-0.028-0.121-0.028
		c-0.026,0-0.05-0.009-0.067-0.024 M384.463,80.418l-0.001,0.004 M212.865,82.533l0.08,0.168 M10.206,102.814
		C2.14,91.039-0.411,77.11,1.989,64.096c2.4-13.018,9.752-25.123,21.488-33.246c0.066-0.054,0.136-0.102,0.208-0.144
		c11.775-8.066,25.704-10.618,38.718-8.218c13.019,2.4,25.123,9.752,33.245,21.489c0.055,0.066,0.103,0.136,0.144,0.208
		c8.066,11.775,10.618,25.704,8.219,38.719c-2.4,13.018-9.752,25.121-21.489,33.244c-0.065,0.055-0.136,0.104-0.208,0.145
		c-11.775,8.066-25.703,10.617-38.718,8.218c-13.018-2.4-25.122-9.752-33.245-21.488C10.296,102.956,10.248,102.887,10.206,102.814z
		 M352.223,139.185c0.635,0.485,0.952,1.162,0.952,2.03c-0.01,0.308,0.01,0.583,0.056,0.826c0.243,0.074,0.406,0.235,0.49,0.482
		c0.084,0.248,0.047,0.479-0.112,0.693c-0.158,0.215-0.387,0.322-0.686,0.322h-0.015c-0.419,0-0.751-0.215-0.993-0.645
		c-0.196-0.41-0.294-0.971-0.294-1.68c-0.019-0.43-0.215-0.766-0.588-1.008c-0.243-0.159-0.504-0.271-0.784-0.336h-1.652v3.037
		c0,0.215-0.077,0.396-0.23,0.547c-0.154,0.148-0.339,0.224-0.554,0.224c-0.214,0-0.396-0.075-0.546-0.224
		c-0.149-0.15-0.224-0.332-0.224-0.547v-8.26c0-0.215,0.074-0.396,0.224-0.546s0.332-0.224,0.546-0.224h2.507
		c0.83,0,1.537,0.294,2.12,0.882c0.584,0.588,0.875,1.32,0.875,2.198C353.315,137.836,352.951,138.578,352.223,139.185
		L352.223,139.185z M350.319,138.316c0.402,0,0.742-0.14,1.022-0.42c0.28-0.279,0.42-0.618,0.42-1.016
		c0-0.396-0.14-0.736-0.42-1.021c-0.28-0.284-0.62-0.427-1.022-0.427h-1.722v2.884H350.319z M356.759,143.679
		c-0.215,0-0.396-0.075-0.546-0.224c-0.149-0.15-0.225-0.332-0.225-0.547v-8.26c0-0.215,0.075-0.396,0.225-0.546
		s0.331-0.224,0.546-0.224h4.578c0.205,0,0.385,0.074,0.539,0.224c0.153,0.149,0.23,0.331,0.23,0.546s-0.077,0.398-0.23,0.553
		c-0.154,0.154-0.334,0.231-0.539,0.231h-3.794v2.562h3.262c0.205,0,0.385,0.077,0.539,0.231s0.23,0.336,0.23,0.546
		s-0.074,0.393-0.224,0.546c-0.149,0.154-0.331,0.231-0.546,0.231h-3.262v2.576h3.794c0.205,0,0.385,0.076,0.539,0.23
		c0.153,0.154,0.23,0.336,0.23,0.546s-0.077,0.392-0.23,0.546c-0.154,0.154-0.334,0.231-0.539,0.231h-4.536l-0.028-0.015
		L356.759,143.679z M370.031,140.696c0-0.709-0.821-1.218-2.464-1.526h-0.028c-0.728-0.14-1.357-0.336-1.89-0.588
		s-0.921-0.576-1.169-0.973c-0.247-0.396-0.371-0.805-0.371-1.225c0-0.813,0.357-1.479,1.071-2.002s1.538-0.784,2.471-0.784
		c0.411,0,0.831,0.07,1.26,0.21c0.43,0.141,0.75,0.271,0.959,0.393c0.21,0.121,0.488,0.293,0.834,0.518
		c0.158,0.111,0.259,0.266,0.301,0.462s0.009,0.376-0.099,0.539c-0.106,0.163-0.259,0.266-0.455,0.308
		c-0.195,0.043-0.377,0.008-0.546-0.104c-0.438-0.299-0.828-0.522-1.169-0.673c-0.341-0.148-0.702-0.224-1.085-0.224
		c-0.616,0-1.12,0.146-1.512,0.435s-0.588,0.597-0.588,0.924c0,0.158,0.037,0.294,0.111,0.406c0.262,0.429,0.967,0.751,2.114,0.966
		h0.028c0.784,0.159,1.428,0.354,1.932,0.588c1.157,0.569,1.736,1.353,1.736,2.352c0,0.868-0.383,1.58-1.148,2.136
		c-0.765,0.555-1.647,0.832-2.646,0.832c-1.223-0.009-2.417-0.476-3.584-1.399c-0.149-0.122-0.235-0.284-0.259-0.49
		c-0.023-0.205,0.025-0.383,0.146-0.532c0.122-0.148,0.285-0.235,0.49-0.259s0.383,0.03,0.532,0.161
		c0.896,0.729,1.787,1.088,2.674,1.078c0.7,0,1.267-0.161,1.701-0.482C369.814,141.418,370.031,141.07,370.031,140.696z
		 M381.735,139.633c0,1.11-0.395,2.063-1.183,2.855c-0.789,0.793-1.743,1.19-2.863,1.19s-2.074-0.395-2.863-1.183
		c-0.788-0.789-1.183-1.744-1.183-2.863v-4.984c0-0.215,0.074-0.396,0.224-0.546s0.332-0.224,0.546-0.224
		c0.215,0,0.399,0.074,0.554,0.224c0.153,0.149,0.23,0.331,0.23,0.546v4.984c0,0.681,0.243,1.267,0.729,1.757
		s1.073,0.735,1.764,0.735s1.278-0.243,1.764-0.729s0.729-1.073,0.729-1.764v-4.984c0-0.215,0.077-0.396,0.23-0.546
		c0.154-0.149,0.339-0.224,0.554-0.224c0.214,0,0.396,0.074,0.546,0.224s0.224,0.331,0.224,0.546V139.633L381.735,139.633z
		 M389.253,140.137h-0.028c-0.271,0-0.485-0.107-0.645-0.322l-2.002-2.8v5.894c0,0.215-0.077,0.396-0.23,0.547
		c-0.154,0.148-0.339,0.224-0.553,0.224c-0.215,0-0.397-0.075-0.547-0.224c-0.149-0.15-0.224-0.332-0.224-0.547v-8.26
		c0-0.215,0.075-0.396,0.224-0.546c0.149-0.149,0.332-0.224,0.547-0.224h0.042c0.271,0,0.476,0.107,0.615,0.322l2.786,3.863
		l2.786-3.863c0.158-0.215,0.368-0.322,0.63-0.322h0.014c0.215,0.009,0.399,0.088,0.554,0.238c0.153,0.148,0.23,0.326,0.23,0.531
		v8.26c0,0.205-0.077,0.385-0.23,0.539c-0.154,0.154-0.339,0.231-0.554,0.231s-0.396-0.075-0.546-0.224
		c-0.149-0.15-0.224-0.332-0.224-0.547v-5.894l-2.016,2.8C389.724,140.029,389.514,140.137,389.253,140.137L389.253,140.137z
		 M397.611,143.679c-0.215,0-0.397-0.075-0.546-0.224c-0.149-0.15-0.225-0.332-0.225-0.547v-8.26c0-0.215,0.075-0.396,0.225-0.546
		c0.148-0.149,0.331-0.224,0.546-0.224h4.578c0.205,0,0.385,0.074,0.538,0.224c0.154,0.149,0.231,0.331,0.231,0.546
		s-0.077,0.398-0.231,0.553c-0.153,0.154-0.333,0.231-0.538,0.231h-3.795v2.562h3.263c0.205,0,0.385,0.077,0.539,0.231
		s0.23,0.336,0.23,0.546s-0.074,0.393-0.224,0.546c-0.149,0.154-0.331,0.231-0.546,0.231h-3.263v2.576h3.795
		c0.205,0,0.385,0.076,0.538,0.23c0.154,0.154,0.231,0.336,0.231,0.546s-0.077,0.392-0.231,0.546
		c-0.153,0.154-0.333,0.231-0.538,0.231h-4.536l-0.028-0.015L397.611,143.679L397.611,143.679z M34.401,134.103
		c0.149,0.149,0.224,0.331,0.224,0.546s-0.077,0.398-0.23,0.553c-0.154,0.154-0.334,0.231-0.539,0.231h-2.226v7.476
		c0,0.215-0.075,0.396-0.225,0.547c-0.149,0.148-0.331,0.224-0.546,0.224s-0.396-0.075-0.546-0.224
		c-0.149-0.15-0.224-0.332-0.224-0.547v-7.476h-2.212c-0.215,0-0.397-0.077-0.546-0.231c-0.149-0.154-0.225-0.338-0.225-0.553
		s0.075-0.396,0.225-0.546c0.148-0.149,0.331-0.224,0.546-0.224h5.978C34.07,133.879,34.251,133.953,34.401,134.103z
		 M41.918,139.185c0.635,0.485,0.952,1.162,0.952,2.03c-0.01,0.308,0.01,0.583,0.056,0.826c0.243,0.074,0.406,0.235,0.49,0.482
		c0.084,0.248,0.047,0.479-0.112,0.693c-0.158,0.215-0.387,0.322-0.686,0.322h-0.015c-0.419,0-0.751-0.215-0.993-0.645
		c-0.196-0.41-0.294-0.971-0.294-1.68c-0.019-0.43-0.215-0.766-0.588-1.008c-0.243-0.159-0.504-0.271-0.784-0.336h-1.652v3.037
		c0,0.215-0.077,0.396-0.23,0.547c-0.154,0.148-0.339,0.224-0.554,0.224c-0.214,0-0.396-0.075-0.546-0.224
		c-0.149-0.15-0.224-0.332-0.224-0.547v-8.26c0-0.215,0.074-0.396,0.224-0.546s0.332-0.224,0.546-0.224h2.507
		c0.83,0,1.537,0.294,2.12,0.882c0.584,0.588,0.875,1.32,0.875,2.198C43.01,137.836,42.647,138.578,41.918,139.185z M40.015,138.316
		c0.401,0,0.741-0.14,1.021-0.42c0.28-0.279,0.42-0.618,0.42-1.016c0-0.396-0.14-0.736-0.42-1.021
		c-0.28-0.284-0.62-0.427-1.021-0.427h-1.723v2.884H40.015z M46.454,143.679c-0.215,0-0.396-0.075-0.546-0.224
		c-0.149-0.15-0.224-0.332-0.224-0.547v-8.26c0-0.215,0.074-0.396,0.224-0.546s0.331-0.224,0.546-0.224h4.578
		c0.205,0,0.385,0.074,0.539,0.224c0.153,0.149,0.23,0.331,0.23,0.546s-0.077,0.398-0.23,0.553
		c-0.154,0.154-0.334,0.231-0.539,0.231h-3.794v2.562H50.5c0.205,0,0.385,0.077,0.539,0.231s0.231,0.336,0.231,0.546
		s-0.075,0.393-0.225,0.546c-0.149,0.154-0.331,0.231-0.546,0.231h-3.262v2.576h3.794c0.205,0,0.385,0.076,0.539,0.23
		c0.153,0.154,0.23,0.336,0.23,0.546s-0.077,0.392-0.23,0.546c-0.154,0.154-0.334,0.231-0.539,0.231h-4.536l-0.028-0.015
		L46.454,143.679z M54.756,143.679c-0.215,0-0.396-0.075-0.546-0.224c-0.149-0.15-0.224-0.332-0.224-0.547v-8.26
		c0-0.215,0.074-0.396,0.224-0.546s0.331-0.224,0.546-0.224s0.399,0.074,0.554,0.224c0.153,0.149,0.23,0.331,0.23,0.546v7.477h3.794
		c0.205,0,0.385,0.076,0.539,0.23c0.153,0.154,0.23,0.336,0.23,0.546s-0.077,0.392-0.23,0.546c-0.154,0.154-0.334,0.231-0.539,0.231
		H54.756z M62.638,143.679c-0.215,0-0.396-0.075-0.546-0.224c-0.149-0.15-0.225-0.332-0.225-0.547v-8.26
		c0-0.215,0.075-0.396,0.225-0.546s0.331-0.224,0.546-0.224s0.399,0.074,0.553,0.224c0.154,0.149,0.231,0.331,0.231,0.546v7.477
		h3.794c0.205,0,0.385,0.076,0.539,0.23c0.153,0.154,0.23,0.336,0.23,0.546s-0.077,0.392-0.23,0.546
		c-0.154,0.154-0.334,0.231-0.539,0.231H62.638z M70.708,142.194c-0.929-0.989-1.393-2.175-1.393-3.556s0.464-2.566,1.393-3.557
		c0.93-0.988,2.061-1.483,3.396-1.483c1.334,0,2.467,0.501,3.395,1.505c0.929,1.004,1.394,2.187,1.394,3.549
		c0,1.363-0.472,2.539-1.414,3.527c-0.42,0.468-0.924,0.834-1.512,1.1c-0.589,0.266-1.199,0.399-1.834,0.399
		C72.779,143.679,71.638,143.184,70.708,142.194z M70.911,138.639c0,0.942,0.313,1.752,0.938,2.429s1.379,1.015,2.261,1.015
		s1.634-0.342,2.254-1.028c0.621-0.687,0.931-1.491,0.931-2.415s-0.308-1.729-0.924-2.415c-0.615-0.687-1.369-1.028-2.261-1.028
		s-1.647,0.338-2.268,1.015C71.222,136.887,70.911,137.695,70.911,138.639z M292.468,74.906c-0.828,0-1.5-0.672-1.5-1.5
		s0.672-1.5,1.5-1.5h17.699h3.514l-3.459-2.972l-2.403-2.064c-0.628-0.537-0.701-1.481-0.164-2.109
		c0.537-0.628,1.481-0.701,2.109-0.165l8.852,7.604c0.369,0.273,0.607,0.711,0.607,1.206s-0.238,0.932-0.607,1.205l-8.852,7.604
		c-0.628,0.537-1.572,0.464-2.109-0.164s-0.464-1.572,0.164-2.109l2.235-1.92l3.627-3.116h-3.569H292.468L292.468,74.906z
		 M110.255,74.906c-0.828,0-1.5-0.672-1.5-1.5s0.672-1.5,1.5-1.5h15.964h5.249l-5.167-4.439l-0.695-0.597
		c-0.628-0.537-0.701-1.481-0.164-2.109c0.537-0.628,1.481-0.701,2.109-0.165l8.852,7.604c0.369,0.273,0.607,0.711,0.607,1.206
		s-0.238,0.932-0.607,1.205l-8.852,7.604c-0.628,0.537-1.572,0.464-2.109-0.164s-0.464-1.572,0.164-2.109l0.472-0.405l5.391-4.631
		h-5.305H110.255z M365.314,69.623c-0.53,0.544-0.928,1.136-1.192,1.773c-0.264,0.637-0.396,1.321-0.396,2.054
		c0,1.462,0.54,2.711,1.618,3.747c0.541,0.52,1.124,0.908,1.749,1.168c0.623,0.258,1.291,0.388,2.001,0.388
		c0.713,0,1.373-0.1,1.979-0.3c0.605-0.199,1.158-0.498,1.657-0.896l0.006-0.004c0.137-0.104,0.288-0.176,0.452-0.215
		c0.164-0.041,0.343-0.049,0.532-0.025l0.006,0.001c0.188,0.024,0.36,0.078,0.515,0.161c0.156,0.084,0.295,0.198,0.414,0.342
		l0.01,0.014c0.108,0.148,0.185,0.308,0.228,0.475l0.001,0.002c0.043,0.17,0.054,0.348,0.029,0.535
		c-0.023,0.188-0.078,0.356-0.162,0.507v0.001c-0.085,0.15-0.2,0.283-0.344,0.395l-0.008,0.006c-0.747,0.58-1.552,1.018-2.414,1.309
		c-0.865,0.292-1.788,0.438-2.767,0.438c-1.122,0-2.167-0.198-3.134-0.594s-1.854-0.988-2.662-1.777
		c-0.809-0.79-1.418-1.661-1.826-2.615c-0.408-0.953-0.616-1.989-0.624-3.104v0V73.4c0.009-1.106,0.217-2.135,0.624-3.083
		c0.408-0.949,1.018-1.819,1.826-2.609c0.808-0.789,1.695-1.384,2.661-1.782c0.967-0.399,2.012-0.603,3.134-0.61h0.001v0
		c0.979,0,1.901,0.146,2.767,0.438s1.673,0.73,2.422,1.314l0.004,0.003c0.143,0.119,0.256,0.255,0.34,0.407s0.139,0.32,0.162,0.503
		c0.024,0.184,0.013,0.361-0.033,0.53c-0.047,0.169-0.128,0.33-0.243,0.48c-0.115,0.152-0.251,0.273-0.406,0.361
		c-0.154,0.088-0.328,0.145-0.52,0.168l-0.007,0c-0.189,0.023-0.365,0.013-0.527-0.031c-0.166-0.044-0.318-0.124-0.457-0.237
		c-0.484-0.398-1.026-0.697-1.625-0.896c-0.6-0.199-1.258-0.299-1.976-0.299c-0.715,0-1.391,0.13-2.024,0.391
		C366.469,68.71,365.872,69.102,365.314,69.623z M395.362,58.127h-9.646c-0.729,0-1.391-0.297-1.869-0.776
		c-0.479-0.479-0.775-1.141-0.775-1.869v-9.169H354.64v54.375h40.722V58.127z M386.072,48.434v6.693h6.693L386.072,48.434z
		 M354.284,43.313h30.287c0.423,0,0.805,0.175,1.077,0.457l11.797,11.797l0.477,0.477c0.293,0.292,0.439,0.676,0.439,1.061l0,0
		v43.938c0,0.729-0.297,1.391-0.775,1.87c-0.479,0.479-1.141,0.775-1.869,0.775h-41.433c-0.729,0-1.391-0.297-1.869-0.775
		c-0.479-0.479-0.775-1.142-0.775-1.87V45.958c0-0.729,0.297-1.39,0.775-1.869C352.894,43.61,353.556,43.313,354.284,43.313z
		 M382.771,81.014c-0.021,0-0.047-0.01-0.078-0.03c-0.034-0.022-0.074-0.057-0.121-0.104h-0.022
		c-0.015-0.015-0.066-0.052-0.155-0.11l-0.019-0.033l0,0c-0.013-0.021-0.029-0.043-0.048-0.066
		c-0.029-0.037-0.052-0.063-0.066-0.078c-0.015-0.014-0.033-0.047-0.056-0.1c-0.021-0.052-0.048-0.092-0.077-0.122l-5.433-12.949
		c-0.118-0.263-0.135-0.534-0.049-0.815c0.012-0.035,0.023-0.07,0.037-0.105l0.017-0.04c0.129-0.296,0.349-0.501,0.66-0.614
		c0.296-0.133,0.599-0.137,0.909-0.011c0.311,0.125,0.532,0.344,0.665,0.654l4.324,10.266l4.323-10.266
		c0.134-0.311,0.359-0.529,0.677-0.654c0.317-0.126,0.624-0.122,0.92,0.011c0.311,0.119,0.528,0.336,0.654,0.654
		c0.125,0.318,0.129,0.625,0.011,0.92l-5.477,12.949l-0.089,0.177c0,0.016-0.007,0.031-0.022,0.045l-0.288,0.288
		c-0.029,0.03-0.077,0.06-0.144,0.089c-0.066,0.03-0.167,0.066-0.3,0.111h-0.044c-0.06,0.015-0.137,0.021-0.233,0.021
		c-0.096,0-0.166-0.007-0.21-0.021h-0.023h-0.021c-0.059-0.029-0.118-0.045-0.178-0.045l-0.021-0.021H382.771L382.771,81.014z
		 M57.431,53.349h13.192c0.663,0,1.269,0.272,1.71,0.712l0.003,0.003l0.003,0.002c0.439,0.442,0.712,1.048,0.712,1.71v19.059
		c0,0.662-0.272,1.268-0.712,1.709l-0.003,0.004l-0.003,0.002c-0.441,0.44-1.048,0.713-1.71,0.713H57.431
		c-0.663,0-1.269-0.273-1.71-0.713l-0.003-0.002l-0.003-0.004c-0.439-0.441-0.713-1.047-0.713-1.709V55.777
		c0-0.663,0.272-1.269,0.713-1.71l0.003-0.002l0.003-0.003C56.162,53.622,56.768,53.349,57.431,53.349z M30.123,46.407h45.751
		c1.154,0,2.207,0.474,2.974,1.238l0.003,0.003l0.003,0.003c0.764,0.767,1.238,1.819,1.238,2.974v45.75
		c0,1.162-0.475,2.217-1.238,2.98s-1.818,1.237-2.979,1.237H30.123c-1.157,0-2.21-0.474-2.974-1.237l-0.006-0.006
		c-0.764-0.764-1.237-1.816-1.237-2.975v-45.75c0-1.161,0.475-2.216,1.237-2.979C27.907,46.881,28.962,46.407,30.123,46.407z
		 M75.874,49.407H30.123c-0.333,0-0.638,0.138-0.858,0.359c-0.221,0.221-0.358,0.525-0.358,0.858v45.75
		c0,0.336,0.137,0.641,0.355,0.862c0.221,0.219,0.526,0.354,0.861,0.354h45.751c0.334,0,0.638-0.137,0.858-0.357
		c0.222-0.221,0.359-0.525,0.359-0.859v-45.75c0-0.337-0.136-0.641-0.354-0.858l-0.006-0.006
		C76.516,49.542,76.212,49.407,75.874,49.407z M35.37,53.354h13.192c0.663,0,1.269,0.272,1.711,0.712l0.003,0.002l0.002,0.003
		c0.44,0.442,0.713,1.048,0.713,1.71v35.437c0,0.662-0.272,1.268-0.713,1.709l-0.002,0.004l-0.003,0.002
		c-0.442,0.44-1.048,0.713-1.711,0.713H35.37c-0.662,0-1.269-0.273-1.71-0.713l-0.003-0.002l-0.003-0.004
		c-0.439-0.441-0.712-1.047-0.712-1.709V55.782c0-0.662,0.272-1.269,0.712-1.71l0.003-0.003l0.003-0.002
		C34.102,53.626,34.708,53.354,35.37,53.354z M47.991,56.354H35.943v34.292h12.049V56.354z M70.051,56.349H58.003v17.915h12.048
		V56.349z M180.591,83.289c-0.259,0.152-0.509,0.296-0.747,0.426c-0.242,0.134-0.478,0.257-0.703,0.368l-0.029,0.015l0,0
		c-0.217,0.105-0.428,0.205-0.633,0.296c-0.211,0.093-0.418,0.177-0.618,0.253c-0.205,0.076-0.408,0.145-0.609,0.203
		c-0.203,0.061-0.412,0.116-0.626,0.164c-0.21,0.048-0.426,0.089-0.646,0.123c-0.215,0.035-0.434,0.063-0.655,0.084
		c-0.88,0.096-1.737,0.096-2.57,0.004c-0.834-0.093-1.644-0.281-2.429-0.561c-0.387-0.139-0.766-0.295-1.137-0.469
		c-0.353-0.167-0.699-0.35-1.035-0.549h-0.001l-0.034-0.021c-0.345-0.205-0.678-0.427-0.997-0.663
		c-0.32-0.236-0.631-0.492-0.931-0.764c-0.598-0.541-1.133-1.135-1.603-1.776c-0.472-0.643-0.881-1.339-1.229-2.087
		c-0.174-0.373-0.327-0.756-0.457-1.144c-0.132-0.388-0.24-0.782-0.327-1.18s-0.151-0.805-0.196-1.216v-0.002
		c-0.042-0.412-0.065-0.829-0.065-1.249c0-0.408,0.021-0.815,0.061-1.219c0.039-0.402,0.1-0.802,0.178-1.196
		c0.08-0.394,0.18-0.782,0.297-1.161c0.119-0.384,0.258-0.761,0.414-1.131c0.156-0.368,0.33-0.727,0.521-1.076
		c0.19-0.348,0.396-0.684,0.617-1.005c0.221-0.323,0.458-0.634,0.71-0.933c0.252-0.299,0.522-0.587,0.809-0.865l0,0
		c0.287-0.277,0.586-0.538,0.895-0.779c0.313-0.244,0.638-0.473,0.974-0.683c0.333-0.209,0.684-0.403,1.049-0.582
		c0.362-0.177,0.739-0.34,1.129-0.486c0.392-0.146,0.793-0.271,1.203-0.372c0.41-0.102,0.831-0.181,1.262-0.237
		c0.429-0.057,0.869-0.092,1.318-0.104c0.451-0.013,0.911-0.003,1.379,0.028c0.183,0.01,0.365,0.026,0.545,0.047
		c0.184,0.021,0.366,0.046,0.544,0.077c0.179,0.031,0.355,0.067,0.527,0.107c0.173,0.04,0.345,0.087,0.511,0.137
		c0.157,0.048,0.319,0.1,0.483,0.156c0.162,0.056,0.319,0.114,0.474,0.174c0.147,0.058,0.297,0.121,0.445,0.186
		c0.146,0.064,0.289,0.132,0.428,0.202l0,0l0.125,0.062l0.123,0.063l-0.062,0.124l-0.062,0.124h-0.001l-1.491,2.982l-0.06,0.12
		l-0.061,0.12l-0.122-0.055l-0.121-0.056v0c-0.167-0.076-0.327-0.145-0.478-0.206c-0.155-0.062-0.303-0.117-0.443-0.165
		c-0.137-0.046-0.269-0.086-0.396-0.12c-0.124-0.033-0.243-0.059-0.354-0.078c-0.112-0.019-0.23-0.037-0.354-0.052
		c-0.121-0.014-0.249-0.028-0.381-0.037c-0.135-0.01-0.271-0.018-0.403-0.023c-0.135-0.005-0.277-0.007-0.429-0.007
		c-0.261,0-0.518,0.014-0.769,0.04l0,0c-0.254,0.026-0.505,0.067-0.753,0.121c-0.249,0.054-0.495,0.121-0.735,0.2v0
		c-0.243,0.081-0.483,0.175-0.72,0.282s-0.469,0.225-0.693,0.351V66.62c-0.219,0.124-0.436,0.26-0.648,0.405
		c-0.207,0.143-0.41,0.297-0.604,0.459l0,0c-0.194,0.161-0.382,0.333-0.563,0.514c-0.183,0.182-0.354,0.37-0.516,0.563l0,0
		c-0.161,0.195-0.314,0.398-0.458,0.605c-0.144,0.208-0.279,0.426-0.405,0.65c-0.126,0.223-0.243,0.455-0.351,0.692
		c-0.105,0.234-0.201,0.477-0.28,0.719h-0.002c-0.079,0.238-0.146,0.484-0.2,0.735c-0.054,0.249-0.094,0.5-0.12,0.753v0
		c-0.026,0.25-0.04,0.507-0.04,0.769c0,0.529,0.055,1.043,0.164,1.542c0.11,0.501,0.274,0.989,0.493,1.461
		c0.11,0.24,0.23,0.473,0.358,0.694h0.001c0.13,0.227,0.268,0.444,0.411,0.649s0.301,0.407,0.467,0.604s0.339,0.385,0.521,0.563
		c0.181,0.179,0.37,0.351,0.568,0.515c0.196,0.163,0.4,0.316,0.609,0.461c0.211,0.145,0.428,0.281,0.649,0.406
		c0.224,0.126,0.452,0.243,0.687,0.35c0.232,0.107,0.47,0.201,0.709,0.281c0.237,0.08,0.479,0.146,0.724,0.201
		c0.245,0.052,0.493,0.093,0.741,0.119c0.246,0.026,0.499,0.041,0.754,0.041l0,0l0.282-0.004l0.277-0.008h0.001
		c0.083-0.004,0.171-0.009,0.259-0.014l0.26-0.021v0.001c0.073-0.007,0.153-0.016,0.238-0.027c0.085-0.011,0.17-0.024,0.247-0.039
		h0.001l0.011-0.002l0.002-0.001h0.001c0.075-0.014,0.15-0.029,0.227-0.047h0.001c0.074-0.016,0.158-0.037,0.247-0.062l0,0
		c0.085-0.022,0.165-0.047,0.241-0.071c0.088-0.028,0.173-0.058,0.256-0.088l0,0c0.09-0.033,0.176-0.066,0.256-0.1
		c0.079-0.033,0.168-0.072,0.261-0.113l0,0c0.089-0.039,0.18-0.084,0.271-0.129v-0.001c0.103-0.051,0.201-0.103,0.291-0.149
		l0.001-0.002c0.094-0.049,0.199-0.107,0.313-0.17v0.001c0.102-0.058,0.21-0.12,0.325-0.188l0.109-0.063l0.108-0.065l0.075,0.103
		l0.074,0.103l0,0l1.925,2.672l0.089,0.123l0.089,0.124l-0.131,0.078L180.591,83.289L180.591,83.289z M253.771,61.791
		c0.808,0,1.589,0.077,2.346,0.229c0.757,0.151,1.489,0.38,2.197,0.684c0.707,0.304,1.37,0.664,1.987,1.081
		c0.616,0.415,1.191,0.888,1.722,1.419c0.528,0.528,1.002,1.103,1.418,1.72v0c0.417,0.619,0.777,1.281,1.08,1.987
		c0.304,0.707,0.533,1.441,0.685,2.197c0.151,0.756,0.228,1.538,0.228,2.345s-0.076,1.589-0.228,2.344
		c-0.151,0.758-0.381,1.491-0.685,2.199c-0.304,0.706-0.664,1.369-1.08,1.987c-0.416,0.616-0.89,1.19-1.418,1.721
		c-0.53,0.528-1.104,1.003-1.722,1.418c-0.617,0.417-1.28,0.776-1.987,1.081c-0.708,0.303-1.44,0.531-2.197,0.684
		c-0.757,0.15-1.538,0.229-2.346,0.229c-0.807,0-1.588-0.078-2.345-0.229c-0.756-0.152-1.489-0.381-2.197-0.684
		c-0.707-0.305-1.37-0.664-1.987-1.081c-0.616-0.415-1.189-0.888-1.721-1.418l0,0c-0.528-0.527-1.002-1.103-1.422-1.721
		c-0.419-0.618-0.783-1.281-1.092-1.987c-0.309-0.707-0.541-1.44-0.695-2.197c-0.155-0.76-0.233-1.541-0.233-2.346
		c0-0.804,0.078-1.586,0.233-2.345c0.154-0.757,0.387-1.491,0.695-2.198c0.309-0.706,0.673-1.369,1.092-1.986
		c0.419-0.619,0.894-1.193,1.422-1.72c0.529-0.53,1.104-1.003,1.721-1.419c0.617-0.417,1.28-0.777,1.987-1.081
		c0.708-0.304,1.441-0.533,2.197-0.684C252.183,61.868,252.964,61.791,253.771,61.791L253.771,61.791z M253.771,81.046
		c0.521,0,1.026-0.05,1.515-0.147c0.488-0.099,0.965-0.248,1.428-0.445c0.463-0.199,0.896-0.434,1.302-0.703l0,0
		c0.403-0.27,0.778-0.575,1.125-0.915c0.345-0.34,0.654-0.711,0.926-1.112c0.271-0.399,0.506-0.832,0.704-1.297
		c0.198-0.461,0.347-0.939,0.446-1.436c0.099-0.496,0.148-1.009,0.148-1.537c0-0.53-0.05-1.042-0.148-1.533
		c-0.1-0.492-0.248-0.968-0.445-1.424c-0.198-0.458-0.434-0.887-0.705-1.29c-0.271-0.399-0.581-0.774-0.928-1.12
		c-0.69-0.691-1.5-1.235-2.425-1.632c-0.463-0.198-0.939-0.348-1.428-0.446c-0.488-0.098-0.993-0.148-1.515-0.148
		c-0.528,0-1.041,0.049-1.537,0.149c-0.496,0.099-0.975,0.248-1.436,0.445c-0.462,0.198-0.896,0.434-1.3,0.705h-0.001
		c-0.403,0.271-0.778,0.581-1.125,0.927l0,0c-0.345,0.345-0.654,0.72-0.926,1.12h0.001c-0.274,0.405-0.511,0.835-0.707,1.29
		c-0.197,0.456-0.346,0.931-0.444,1.424c-0.1,0.491-0.148,1.002-0.148,1.533c0,0.528,0.05,1.041,0.148,1.538
		c0.099,0.495,0.248,0.974,0.445,1.435c0.198,0.465,0.435,0.896,0.704,1.297c0.272,0.401,0.58,0.772,0.926,1.112
		c0.345,0.34,0.721,0.645,1.126,0.915l0,0c0.403,0.27,0.838,0.504,1.301,0.703c0.461,0.196,0.94,0.345,1.436,0.444
		C252.73,80.996,253.242,81.046,253.771,81.046L253.771,81.046z M239.113,85.285h-13.291h-0.14h-0.14v-0.139v-0.141V61.963v-0.14
		v-0.139h0.14h0.14h3.385h0.14h0.14v0.139v0.14v19.378h9.627h0.141h0.139v0.14v0.141v3.385v0.141v0.139h-0.139H239.113z
		 M213.654,67.019l-0.453,0.963l-3.105,6.608l2.884,6.136l0.675,1.438l-0.706,0.33l-0.083,0.039l-1.545,0.723l-3.815-8.118v-1.092
		l3.815-8.119l1.539,0.72l0.362,0.17L213.654,67.019L213.654,67.019z M193.648,84.659l9.91-22.557h-3.856l-5.926,13.519l-0.128,0.29
		l-0.127-0.29l-5.926-13.519h-3.857L193.648,84.659L193.648,84.659z M154.287,114.379c-11.261-16.412-14.823-35.834-11.478-53.98
		c3.347-18.15,13.603-35.025,29.977-46.342c0.065-0.054,0.136-0.102,0.208-0.143c16.412-11.26,35.833-14.823,53.979-11.478
		c18.149,3.347,35.025,13.603,46.341,29.977c0.055,0.066,0.103,0.136,0.144,0.208c11.26,16.412,14.823,35.833,11.478,53.979
		c-3.347,18.149-13.604,35.025-29.978,46.342c-0.066,0.054-0.136,0.102-0.207,0.143c-16.413,11.26-35.833,14.822-53.979,11.477
		c-18.15-3.346-35.025-13.602-46.342-29.976C154.376,114.521,154.328,114.451,154.287,114.379L154.287,114.379z M145.751,60.938
		c-3.214,17.433,0.222,36.093,11.067,51.846l0.002,0.003c10.85,15.755,27.058,25.62,44.49,28.834
		c17.435,3.215,36.095-0.221,51.848-11.068l0.001-0.001c15.755-10.85,25.62-27.058,28.835-44.489
		c3.214-17.435-0.222-36.096-11.069-51.848l-0.001-0.001c-10.85-15.755-27.057-25.621-44.489-28.835
		c-17.434-3.214-36.094,0.222-51.846,11.068l-0.003,0.002C158.831,27.298,148.965,43.505,145.751,60.938z M332.208,102.814
		c-8.066-11.775-10.618-25.704-8.219-38.718c2.4-13.018,9.752-25.123,21.489-33.246c0.065-0.054,0.136-0.102,0.208-0.144
		c11.775-8.066,25.703-10.618,38.718-8.218c13.018,2.4,25.122,9.752,33.245,21.489c0.054,0.066,0.102,0.136,0.144,0.208
		c8.065,11.775,10.617,25.704,8.219,38.719c-2.4,13.018-9.753,25.121-21.489,33.244c-0.066,0.055-0.136,0.104-0.208,0.145
		c-11.775,8.066-25.703,10.617-38.718,8.218c-13.019-2.4-25.122-9.752-33.245-21.488
		C332.297,102.956,332.249,102.887,332.208,102.814z M326.931,64.635c-2.268,12.302,0.156,25.468,7.81,36.583l0.002,0.004
		c7.656,11.117,19.093,18.079,31.394,20.348c12.302,2.268,25.469-0.156,36.584-7.81l0.002-0.003
		c11.118-7.655,18.08-19.092,20.349-31.394c2.268-12.302-0.156-25.469-7.81-36.584l-0.002-0.002
		c-7.656-11.118-19.093-18.08-31.394-20.348c-12.302-2.268-25.469,0.156-36.584,7.809l-0.003,0.002
		C336.16,40.897,329.198,52.334,326.931,64.635L326.931,64.635z M4.93,64.635c-2.269,12.302,0.155,25.468,7.809,36.583l0.002,0.004
		c7.656,11.117,19.093,18.079,31.394,20.348c12.302,2.268,25.469-0.156,36.584-7.81l0.003-0.003
		c11.118-7.655,18.08-19.092,20.348-31.394s-0.156-25.469-7.81-36.584l-0.002-0.002C85.602,34.66,74.164,27.698,61.864,25.43
		c-12.302-2.268-25.469,0.156-36.584,7.809l-0.002,0.002C14.159,40.897,7.198,52.334,4.93,64.635z"/>
</g>
</svg>
